<svg id="Layer_1" data-name="Layer 1" xmlns="http://www.w3.org/2000/svg" xmlns:xlink="http://www.w3.org/1999/xlink" viewBox="0 0 1024 1024"><defs><style>.cls-1{fill:none;}.cls-2{fill:#3a4961;}.cls-3{fill:#d9d9d9;}.cls-4{fill:#e7e7e7;}.cls-5{fill:#27354a;}.cls-6{fill:#3c3c3b;}.cls-7{clip-path:url(#clip-path);}.cls-8{fill:#393a3a;}.cls-9{fill:#575756;}.cls-10{fill:#868686;}.cls-11{fill:#c5c5c5;}.cls-12{fill:#b1b1b1;}.cls-13{fill:#1d1d1b;}.cls-14{fill:#bd1622;}</style><clipPath id="clip-path"><path class="cls-1" d="M770.24,749.69l-455.59,83.5L203.47,228.27l509.82-93.71Q741.76,442.14,770.24,749.69Z"/></clipPath></defs><rect class="cls-2" x="277.1" y="36.36" width="471.21" height="951.28" rx="59.49" transform="translate(-83.98 100.93) rotate(-10.4)"/><rect class="cls-3" x="305.12" y="146.2" width="415.18" height="731.6" transform="translate(-83.98 100.93) rotate(-10.4)"/><circle class="cls-4" cx="587.51" cy="919.72" r="29.01"/><circle class="cls-4" cx="358.4" cy="117.77" r="4.85"/><rect class="cls-4" x="393.68" y="99.63" width="94.81" height="5.95" rx="2.97" transform="translate(-11.27 81.28) rotate(-10.4)"/><path class="cls-5" d="M816.34,861.28l2.8,15.25a61.82,61.82,0,0,1-49.68,71.94l-341.83,62.72a61.82,61.82,0,0,1-72-49.62l-2.8-15.26a61.82,61.82,0,0,0,72,49.62l341.83-62.72A61.81,61.81,0,0,0,816.34,861.28Z"/><path class="cls-6" d="M386.43,319.82a163,163,0,0,0-5,16.95c-3.19,13.57-6.43,27.36-3.23,42.21,3,13.85,8,12,10.54,24.95,3.69,18.57-6.5,22.76-3,38.27,4,17.88,19.21,20.1,19,35.81-.12,8.89-5,9.2-7.45,20.7-2.94,14,.64,31.5,11,42.65,10.22,11,25.31,12.11,39.17,12.94,39.72,2.39,49.34-14.84,92.65-17,19.87-1,19.77,2.52,49.76,1.55,28.49-.93,52.15-1.69,56.11-12.2,5-13.17-26.61-26.86-23.34-51.08,1.67-12.39,11.17-18,7.68-27.21-3.59-9.43-15.43-8.12-18.42-17.38-3.1-9.62,8.48-14.82,7.19-26.49-1.44-12.95-16.4-12.71-23-28.49-5.6-13.38,2.94-18.85-.08-38.37-2.67-17.27-11.86-29.15-16.64-35.32-15.88-20.52-36.38-28.52-45.09-31.35"/><g class="cls-7"><path class="cls-8" d="M460.22,486c1.06-.5,3.84-1.78,7.42-3.28,11.49-4.81,46.85-19.19,88.62-15.6,3.6.31,6.43.68,7.47.83l2.13,13.53L462.48,498.87Q461.34,492.43,460.22,486Z"/><path class="cls-9" d="M718.67,583.14,753.81,774.3,384.26,842.23l-37.67-204.9c-5.15-28,3.12-56.33,21.77-74.75,2.06-2,3.85-4.06,6.85-7.1,0,0,5-5,10.84-10.22,6.73-6,35-28.92,74.17-59.26l12.26,13.93,75-3.62L563.73,468c14.92,3.39,27.14,7.08,36.15,10.09,10.57,3.52,19.25,7,30.15,11.24,9.42,3.7,19.81,8.07,23.6,9.66C686.74,512.79,711.6,544.69,718.67,583.14Z"/><path class="cls-3" d="M548.49,418.34l-92.67,17c1.5,2.25,19.71,30.29,8.52,46.34a19.42,19.42,0,0,1-4.12,4.29,62.48,62.48,0,0,0,7.48,12.3,51.9,51.9,0,0,0,12.35,7.15c14.59,5.9,28,3.38,36.05,1.74,23.94-4.85,39.78-19.6,46.41-26.61.19-1.15.37-2.34.52-3.57a83.37,83.37,0,0,0,.59-9l0,0a28.57,28.57,0,0,1-6.81-4.62C541.25,449.1,547.6,421.93,548.49,418.34Z"/><path class="cls-10" d="M571,631.45c0,17.1-.28,54.78-.52,81.34q-.35,36.93-.88,73.54Q541,717.59,513.38,642.39,483.91,561.82,460.22,486c1,1.2,22.62,26.36,55.88,21.19A60.66,60.66,0,0,0,563.72,468C569.7,541.84,571,595.78,571,631.45Z"/><ellipse class="cls-11" cx="406.08" cy="385.68" rx="9.4" ry="26.15" transform="translate(-111.72 172.29) rotate(-21.13)"/><ellipse class="cls-11" cx="571.61" cy="355.26" rx="26.15" ry="9.4" transform="translate(213.39 925.02) rotate(-89.7)"/><path class="cls-3" d="M509.37,460.72c-17.84,3.85-33.33-5.52-50.16-16-14.15-8.85-37.73-26.57-57.65-59.66l-6.69-36.36c-8.7-47.33,23.22-93.23,70.94-102s93.87,22.78,102.56,70.11l6.69,36.36c-4.61,34.9-17.61,58.67-26.15,71.59C538.09,441.08,527.71,456.76,509.37,460.72Z"/><path class="cls-6" d="M412.59,388.48a133.44,133.44,0,0,1-21.93-41.88c-3.88-12.47-8.13-26.09-4.44-42.44a87.66,87.66,0,0,1,8.53-21.63c3.25-6,6-11,11.34-16.31,9.88-9.73,21.55-13.16,26.69-14.61,6.17-1.74,6.79-1,15.08-3.29,9.89-2.77,10.1-4.18,18.09-6.6,5.57-1.69,18-5.32,33.14-2.6a46.87,46.87,0,0,1,9.93,2.65c4.6,2,8.57,3.56,25.47,14.52,9.61,6.24,11.49,7.64,13.65,9.48a101.7,101.7,0,0,1,10.48,10.54c3.67,4.08,12.73,14.33,15.4,18.12,11.51,16.34.39,49.24-2.82,58.12-3.24-22-9.28-28.57-14.36-30.34-2-.7-11.3-3.26-16.78-8.12-1.27-1.13-2.49-2.41-2.49-2.41a41.16,41.16,0,0,1-6-8.07c-1.77-3.09-6.59-8.58-19.34-19.12-23.6,5.85-36.56,16-44,24.13-9.12,10-12,19.16-25.05,26-11.64,6.15-17.53,3.14-24.16,8.52C412.77,348.27,407.23,359.73,412.59,388.48Z"/></g><path class="cls-12" d="M396.66,361.28c-1.42-7-6-33.88,9.85-60.66,18.91-32,52.28-39.15,59.46-40.69,8.9-1.92,39.24-7.93,68.3,11,30.76,20,36.58,52.71,37.46,58.18a91,91,0,0,0-99.58-55.66C429.39,280.77,397.38,317.85,396.66,361.28Z"/><rect class="cls-13" x="241.33" y="150.69" width="415.51" height="30.84" transform="translate(-22.63 83.92) rotate(-10.41)"/><rect class="cls-13" x="357.17" y="717.06" width="415.32" height="157.31" transform="translate(-134.54 115.21) rotate(-10.41)"/><circle class="cls-14" cx="564.13" cy="791.79" r="39.48"/><rect class="cls-4" x="551.37" y="779.03" width="25.51" height="25.51" transform="translate(-133.84 115.02) rotate(-10.41)"/><path class="cls-2" d="M598.46,928.88c-1.59.26-4.11,1.81-5.55,2.49-1.27.61-3.07,1.47-4.93.88-.82-.25-2.15-1-2.23-2s1.13-2,3.56-3.94c.53-.43.7-.55,1-.77,1.29-1,4.54-3.65,4.51-7a5.78,5.78,0,0,0-2.92-5,5.55,5.55,0,0,0-3.8-.29,8.11,8.11,0,0,0-3.21,1.77,16.45,16.45,0,0,0-4.58,5.39,12.88,12.88,0,0,0-1.73,5.78,11.6,11.6,0,0,0,1,5.21,9.44,9.44,0,0,0,6.85,5.59,12.76,12.76,0,0,0,4.75.2,14.11,14.11,0,0,0,7.37-3.64c2-1.7,2.08-2.51,2-2.91a2.18,2.18,0,0,0-1.42-1.69A1.63,1.63,0,0,0,598.46,928.88Zm-15-2.94c-.79-.56.28-4.16,2.57-6.15.72-.62,2.17-1.67,2.78-1.25s-.06,2.57-.12,2.72a6.63,6.63,0,0,1-1.59,2.39C586.41,924.36,584.18,926.45,583.47,925.94Z"/><rect class="cls-2" x="580.29" y="901.76" width="3.34" height="9.73" rx="1.65" transform="translate(-320.33 317.98) rotate(-24.18)"/><rect class="cls-2" x="587.79" y="900.15" width="3.34" height="9.73" rx="1.65" transform="matrix(0.99, 0.1, -0.1, 0.99, 94.75, -55.08)"/><rect class="cls-2" x="574.48" y="906.13" width="3.34" height="9.73" rx="1.65" transform="matrix(-0.59, 0.81, -0.81, -0.59, 1652.02, 976.9)"/><rect class="cls-2" x="571.81" y="912.81" width="3.34" height="9.73" rx="1.65" transform="translate(1561.01 475.17) rotate(97.87)"/><rect class="cls-2" x="594.56" y="902.6" width="3.34" height="9.73" rx="1.65" transform="translate(604.97 -178.31) rotate(33.77)"/></svg>